<?xml version="1.0" encoding="utf-8"?>
<!-- Generator: Adobe Illustrator 23.1.1, SVG Export Plug-In . SVG Version: 6.00 Build 0)  -->
<svg version="1.1" id="Layer_1" xmlns="http://www.w3.org/2000/svg" xmlns:xlink="http://www.w3.org/1999/xlink" x="0px" y="0px"
	 viewBox="0 0 88.02 88.32" style="enable-background:new 0 0 88.02 88.32;" xml:space="preserve">
<style type="text/css">
	.st0{fill-rule:evenodd;clip-rule:evenodd;fill:#FFFFFF;}
</style>
<path class="st0" d="M44.16,0c16.42,0,29.78,13.36,29.78,29.78c0,7.6-2.86,14.76-8.03,20.3l22.1,22.1l-1.46,1.46l-22.1-22.1
	c-5.24,4.91-12.08,7.75-19.25,7.97v27.77c0,0.57-0.46,1.04-1.03,1.04H15.41c-0.28,0-0.54-0.11-0.73-0.3L0.3,73.64
	C0.11,73.45,0,73.19,0,72.91V29.79c0-0.57,0.46-1.03,1.04-1.03h13.39C14.98,12.81,28.09,0,44.16,0L44.16,0z M14.39,30.82H2.07v41.06
	h13.34c0.57,0,1.03,0.46,1.03,1.04v13.34h26.68v-26.7c-0.37-0.01-0.73-0.06-1.1-0.09c-0.44-0.03-0.88-0.06-1.32-0.11
	c-0.54-0.07-1.08-0.15-1.61-0.25c-0.43-0.07-0.85-0.14-1.27-0.23c-0.53-0.12-1.05-0.26-1.56-0.4c-0.41-0.11-0.82-0.22-1.22-0.35
	c-0.51-0.17-1.01-0.36-1.52-0.56c-0.38-0.15-0.77-0.28-1.15-0.45c-0.5-0.22-0.98-0.46-1.47-0.71c-0.36-0.18-0.72-0.34-1.07-0.54
	c-0.49-0.27-0.95-0.57-1.42-0.86c-0.33-0.2-0.66-0.39-0.98-0.61c-0.48-0.33-0.94-0.69-1.4-1.05c-0.28-0.22-0.57-0.41-0.84-0.64
	c-0.58-0.48-1.14-1-1.68-1.53c-0.26-0.26-0.52-0.52-0.77-0.78c-0.51-0.52-1.01-1.07-1.48-1.63c-0.25-0.31-0.48-0.64-0.72-0.95
	c-0.33-0.43-0.66-0.84-0.96-1.28c-0.25-0.36-0.47-0.75-0.7-1.12c-0.26-0.42-0.53-0.83-0.77-1.27c-0.22-0.4-0.41-0.81-0.61-1.22
	c-0.22-0.43-0.44-0.87-0.63-1.31c-0.18-0.42-0.34-0.86-0.5-1.3c-0.17-0.46-0.35-0.91-0.5-1.37c-0.14-0.45-0.26-0.9-0.38-1.36
	c-0.13-0.47-0.26-0.94-0.37-1.42c-0.1-0.46-0.18-0.94-0.26-1.41c-0.08-0.49-0.16-0.97-0.22-1.47c-0.06-0.48-0.09-0.97-0.12-1.45
	C14.46,31.49,14.41,31.16,14.39,30.82z M14.37,73.94H3.53l10.84,10.84L14.37,73.94L14.37,73.94z M44.16,2.07
	c-15.28,0-27.72,12.43-27.72,27.72c0,15.28,12.43,27.72,27.72,27.72c7.4,0,14.36-2.88,19.59-8.12c5.24-5.24,8.12-12.2,8.12-19.6
	C71.87,14.51,59.44,2.07,44.16,2.07z M60.53,16.31l1.77,1.07L51.46,35.41c-0.19,0.33-0.56,0.54-0.94,0.5
	c-0.38-0.02-0.72-0.25-0.88-0.6l-5.57-11.92l-6.97,12c-0.21,0.35-0.62,0.55-1.01,0.51c-0.4-0.05-0.75-0.32-0.87-0.71l-2.81-8.63
	l-6.69,11.59l-1.79-1.04l7.85-13.6c0.21-0.35,0.6-0.54,1-0.51c0.41,0.04,0.75,0.32,0.88,0.71l2.81,8.64l6.8-11.71
	c0.19-0.33,0.54-0.53,0.94-0.51c0.39,0.02,0.73,0.25,0.9,0.59l5.59,11.95L60.53,16.31L60.53,16.31z"/>
</svg>
