<?xml version="1.0" encoding="utf-8"?>
<!-- Generator: Adobe Illustrator 23.1.1, SVG Export Plug-In . SVG Version: 6.00 Build 0)  -->
<svg version="1.1" id="Layer_1" xmlns="http://www.w3.org/2000/svg" xmlns:xlink="http://www.w3.org/1999/xlink" x="0px" y="0px"
	 viewBox="0 0 288 208" style="enable-background:new 0 0 288 208;" xml:space="preserve">
<style type="text/css">
	.st0{fill-rule:evenodd;clip-rule:evenodd;fill:#171717;}
	.st1{fill-rule:evenodd;clip-rule:evenodd;fill:#20D5D2;}
</style>
<g>
	<path class="st0" d="M0,0h288v208H0V0z"/>
	<path class="st1" d="M145.28,62.78v40.72H186v2h-40.72v40.72h-2.01V105.5h-40.71v-2h40.71V62.78H145.28L145.28,62.78z
		 M166.53,140.66c1.54,0,2.78,1.24,2.78,2.78c0,1.54-1.24,2.78-2.78,2.78c-1.54,0-2.78-1.25-2.78-2.78
		C163.76,141.9,165,140.66,166.53,140.66L166.53,140.66z M166.53,121.19c1.54,0,2.78,1.24,2.78,2.78c0,1.54-1.24,2.78-2.78,2.78
		c-1.54,0-2.78-1.25-2.78-2.78C163.76,122.43,165,121.19,166.53,121.19L166.53,121.19z M177.65,121.19c1.54,0,2.78,1.24,2.78,2.78
		c0,1.54-1.24,2.78-2.78,2.78c-1.54,0-2.78-1.25-2.78-2.78C174.88,122.43,176.12,121.19,177.65,121.19L177.65,121.19z M110.9,121.19
		c1.54,0,2.78,1.24,2.78,2.78c0,1.54-1.24,2.78-2.78,2.78c-1.54,0-2.78-1.25-2.78-2.78C108.13,122.43,109.37,121.19,110.9,121.19
		L110.9,121.19z M166.53,87.81c1.54,0,2.78,1.24,2.79,2.77c0,1.54-1.24,2.78-2.77,2.79c0,0-0.01,0-0.01,0
		c-1.54,0-2.78-1.25-2.78-2.78C163.75,89.06,164.99,87.82,166.53,87.81z M110.9,87.81c1.54,0,2.78,1.24,2.79,2.77
		c0,1.54-1.24,2.78-2.77,2.79c0,0-0.01,0-0.01,0c-1.54,0-2.78-1.25-2.78-2.78C108.13,89.06,109.37,87.82,110.9,87.81z M122.03,87.81
		c1.54,0,2.78,1.24,2.79,2.77c0,1.54-1.24,2.78-2.77,2.79c0,0-0.01,0-0.01,0c-1.54,0-2.78-1.25-2.78-2.78
		C119.25,89.06,120.5,87.82,122.03,87.81z M166.53,62.78c1.54,0,2.78,1.25,2.78,2.78c0,1.54-1.25,2.78-2.78,2.78
		s-2.78-1.25-2.78-2.78C163.74,64.03,164.99,62.78,166.53,62.78z M122.03,62.78c1.54,0,2.78,1.24,2.78,2.78
		c0,1.54-1.24,2.78-2.78,2.78c-1.54,0-2.78-1.24-2.78-2.78C119.25,64.03,120.49,62.78,122.03,62.78L122.03,62.78z"/>
</g>
</svg>
