<?xml version="1.0" encoding="utf-8"?>
<!-- Generator: Adobe Illustrator 23.1.1, SVG Export Plug-In . SVG Version: 6.00 Build 0)  -->
<svg version="1.1" id="Layer_1" xmlns="http://www.w3.org/2000/svg" xmlns:xlink="http://www.w3.org/1999/xlink" x="0px" y="0px"
	 viewBox="0 0 288 208" style="enable-background:new 0 0 288 208;" xml:space="preserve">
<style type="text/css">
	.st0{fill-rule:evenodd;clip-rule:evenodd;fill:#171717;}
	.st1{fill-rule:evenodd;clip-rule:evenodd;fill:#20D5D2;}
</style>
<g>
	<path class="st0" d="M0,0h288v208H0V0z"/>
	<path class="st1" d="M166.23,107.18c9.95,0,18.05,8.1,18.05,18.05c0,9.95-8.1,18.05-18.05,18.05c-9.95,0-18.05-8.1-18.05-18.05
		c0-2.87,0.69-5.72,2.01-8.25c1.39-2.74,3.46-5.06,6.02-6.76C159.17,108.23,162.66,107.17,166.23,107.18z M104.68,130.8
		c0-12.12,7.79-23.01,19.38-27.08c0.48,0.25,1.07,0.06,1.32-0.42c0.25-0.48,0.06-1.07-0.42-1.32c-0.24-0.12-0.51-0.14-0.77-0.05
		c-6.78-3.54-11-10.42-11-17.94c0-11.2,9.11-20.31,20.31-20.31c11.2,0,20.31,9.11,20.31,20.31c0,7.54-4.21,14.4-11,17.92
		c-0.48,0.25-0.66,0.84-0.41,1.32c0.11,0.22,0.31,0.39,0.54,0.47c3.82,1.34,7.35,3.54,10.32,6.32c-1.99,1.69-3.62,3.75-4.81,6.07
		c-1.46,2.83-2.22,5.96-2.22,9.14c0,11.03,8.98,20.01,20.01,20.01c11.03,0,20.01-8.98,20.01-20.01c0-11.03-8.98-20.01-20.01-20.01
		c-3.98,0-7.82,1.17-11.11,3.38c-0.1,0.06-0.18,0.14-0.27,0.21c-2.71-2.6-5.88-4.73-9.33-6.21c6.37-4.07,10.25-11.03,10.25-18.61
		c0-12.28-9.99-22.27-22.27-22.27s-22.27,9.99-22.27,22.27c0,7.57,3.88,14.54,10.25,18.64c-11.3,4.83-18.76,15.91-18.76,28.18v16.18
		h1.96V130.8L104.68,130.8z M163.51,126.21h5.44c0.96,0,1.74,0.78,1.74,1.74s-0.78,1.74-1.74,1.74h-8.16v1.96h4.46v3.1h1.96v-3.1
		h1.74c2.04,0,3.69-1.66,3.7-3.7c0-2.04-1.66-3.7-3.7-3.7h-5.44c-0.96,0-1.74-0.78-1.74-1.74s0.78-1.74,1.74-1.74h8.16v-1.96h-4.46
		v-3.1h-1.95v3.1h-1.74c-2.04,0-3.69,1.66-3.69,3.7C159.81,124.55,161.47,126.2,163.51,126.21"/>
</g>
</svg>
