<?xml version="1.0" encoding="utf-8"?>
<!-- Generator: Adobe Illustrator 23.1.1, SVG Export Plug-In . SVG Version: 6.00 Build 0)  -->
<svg version="1.1" id="Layer_1" xmlns="http://www.w3.org/2000/svg" xmlns:xlink="http://www.w3.org/1999/xlink" x="0px" y="0px"
	 viewBox="0 0 288 208" style="enable-background:new 0 0 288 208;" xml:space="preserve">
<style type="text/css">
	.st0{fill-rule:evenodd;clip-rule:evenodd;fill:#171717;}
	.st1{fill-rule:evenodd;clip-rule:evenodd;fill:#20D5D2;}
</style>
<g>
	<path class="st0" d="M0,0h288v208H0V0z"/>
	<path class="st1" d="M180.3,65.69c0.53,0,0.96,0.43,0.96,0.97v51.06c0,0.53-0.42,0.96-0.95,0.97c0,0,0,0,0,0h-9.67v28.59
		c0,0.53-0.42,0.96-0.96,0.97c0,0,0,0,0,0h-69.06c-0.53,0-0.96-0.44-0.96-0.97c0,0,0,0,0,0V96.22c0-0.54,0.43-0.97,0.96-0.97h9.67
		v-28.6c0-0.54,0.43-0.97,0.96-0.97H180.3L180.3,65.69z M168.72,105.25h-67.15v41.07h67.15L168.72,105.25L168.72,105.25z
		 M179.34,75.68h-67.15v19.57h57.48c0.53,0,0.96,0.43,0.96,0.97v20.53h8.71C179.34,116.75,179.34,75.68,179.34,75.68z M168.72,97.18
		h-67.15v6.13h67.15L168.72,97.18L168.72,97.18z M152.41,98.9c0.73,0,1.33,0.6,1.33,1.34c0,0.74-0.6,1.34-1.33,1.34
		c-0.73,0-1.33-0.6-1.33-1.34C151.08,99.51,151.68,98.9,152.41,98.9z M163.03,98.9c0.73,0,1.33,0.6,1.33,1.34
		c0,0.74-0.6,1.34-1.33,1.34c-0.73,0-1.33-0.6-1.33-1.34C161.71,99.51,162.3,98.9,163.03,98.9z M157.72,98.9
		c0.73,0,1.33,0.6,1.33,1.34c0,0.74-0.6,1.34-1.33,1.34c-0.73,0-1.33-0.6-1.33-1.34C156.39,99.51,156.99,98.9,157.72,98.9z
		 M179.34,67.62h-67.15v6.13h67.15V67.62z M173.66,69.34c0.73,0,1.33,0.6,1.33,1.34c0,0.74-0.6,1.34-1.33,1.34
		c-0.73,0-1.33-0.6-1.33-1.34C172.33,69.94,172.93,69.34,173.66,69.34z M168.35,69.34c0.73,0,1.33,0.6,1.33,1.34
		c0,0.74-0.6,1.34-1.33,1.34c-0.73,0-1.33-0.6-1.33-1.34C167.02,69.94,167.62,69.34,168.35,69.34z M163.03,69.34
		c0.73,0,1.33,0.6,1.33,1.34c0,0.74-0.6,1.34-1.33,1.34c-0.73,0-1.33-0.6-1.33-1.34C161.71,69.94,162.3,69.34,163.03,69.34z"/>
</g>
</svg>
