<?xml version="1.0" encoding="utf-8"?>
<!-- Generator: Adobe Illustrator 23.1.1, SVG Export Plug-In . SVG Version: 6.00 Build 0)  -->
<svg version="1.1" id="Layer_1" xmlns="http://www.w3.org/2000/svg" xmlns:xlink="http://www.w3.org/1999/xlink" x="0px" y="0px"
	 viewBox="0 0 288 208" style="enable-background:new 0 0 288 208;" xml:space="preserve">
<style type="text/css">
	.st0{fill-rule:evenodd;clip-rule:evenodd;fill:#171717;}
	.st1{fill-rule:evenodd;clip-rule:evenodd;fill:#20D5D2;}
</style>
<g>
	<path class="st0" d="M0,0h288v208H0V0z"/>
	<path class="st1" d="M115.9,77.03c0.39,0.38,0.4,1.01,0.01,1.41c0,0-0.01,0.01-0.01,0.01c-7.78,7.69-12.06,17.91-12.06,28.79
		c0,10.87,4.28,21.1,12.06,28.79c0.39,0.38,0.4,1.01,0.01,1.41c0,0-0.01,0.01-0.01,0.01c-0.19,0.19-0.45,0.29-0.71,0.29
		c-0.26,0-0.52-0.1-0.71-0.29c-8.16-8.07-12.65-18.8-12.65-30.21c0-11.41,4.49-22.14,12.65-30.21
		C114.86,76.63,115.5,76.63,115.9,77.03z M175.51,76.98c8.19,8.07,12.7,18.82,12.7,30.25c0,11.41-4.49,22.14-12.65,30.21
		c-0.19,0.19-0.45,0.29-0.71,0.29c-0.26,0-0.52-0.1-0.71-0.29c-0.39-0.38-0.4-1.01-0.01-1.41c0,0,0.01-0.01,0.01-0.01
		c7.78-7.69,12.06-17.92,12.06-28.79c0-10.9-4.3-21.14-12.1-28.83c-0.39-0.38-0.4-1.01-0.01-1.4c0,0,0.01-0.01,0.01-0.01
		C174.48,76.59,175.12,76.59,175.51,76.98L175.51,76.98z M144.93,81.2c14.52,0,26.33,11.68,26.33,26.04s-11.81,26.03-26.32,26.03
		c-14.52,0-26.32-11.68-26.32-26.03S130.41,81.2,144.93,81.2L144.93,81.2z M121.86,82.93c0.39,0.38,0.4,1.01,0.01,1.41
		c0,0-0.01,0.01-0.01,0.01c-6.18,6.11-9.58,14.24-9.58,22.89c0,8.65,3.41,16.78,9.59,22.89c0.39,0.38,0.4,1.01,0.01,1.41
		c0,0-0.01,0.01-0.01,0.01c-0.19,0.19-0.45,0.29-0.71,0.29c-0.26,0-0.52-0.1-0.71-0.29c-6.57-6.49-10.18-15.13-10.18-24.31
		c0-9.18,3.61-17.82,10.18-24.31C120.83,82.53,121.47,82.53,121.86,82.93z M169.55,82.88c6.6,6.5,10.23,15.15,10.23,24.35
		c0,9.18-3.62,17.82-10.18,24.31c-0.19,0.19-0.45,0.29-0.71,0.29c-0.26,0-0.52-0.1-0.71-0.29c-0.39-0.38-0.4-1.01-0.01-1.41
		c0,0,0.01-0.01,0.01-0.01c6.18-6.11,9.59-14.24,9.59-22.89c0-8.67-3.42-16.82-9.63-22.93c-0.39-0.38-0.4-1.01-0.01-1.4
		c0,0,0.01-0.01,0.01-0.01C168.52,82.49,169.15,82.49,169.55,82.88L169.55,82.88z M144.93,83.2c-13.4,0-24.3,10.78-24.3,24.03
		c0,13.25,10.9,24.03,24.3,24.03c13.4,0,24.3-10.78,24.3-24.03C169.23,93.98,158.32,83.2,144.93,83.2z M153.41,95.06
		c3.66,0,6.64,2.95,6.64,6.57v8.34c0,3.62-2.98,6.56-6.64,6.56h-5.08l-5.33,7.9l-1.68-1.11l5.62-8.34c0.19-0.28,0.5-0.45,0.84-0.45
		h5.62c2.54,0,4.61-2.04,4.61-4.56v-8.34c0-2.52-2.07-4.56-4.61-4.56h-16.88c-2.54,0-4.61,2.04-4.61,4.56v8.35
		c0,2.51,2.07,4.56,4.61,4.56h5.62v2h-5.62c-3.66,0-6.64-2.94-6.64-6.56v-8.34c0-3.62,2.98-6.57,6.64-6.57H153.41z"/>
</g>
</svg>
