<?xml version="1.0" encoding="utf-8"?>
<!-- Generator: Adobe Illustrator 23.1.1, SVG Export Plug-In . SVG Version: 6.00 Build 0)  -->
<svg version="1.1" id="Layer_1" xmlns="http://www.w3.org/2000/svg" xmlns:xlink="http://www.w3.org/1999/xlink" x="0px" y="0px"
	 viewBox="0 0 288 208" style="enable-background:new 0 0 288 208;" xml:space="preserve">
<style type="text/css">
	.st0{fill-rule:evenodd;clip-rule:evenodd;fill:#171717;}
	.st1{fill-rule:evenodd;clip-rule:evenodd;fill:#20D5D2;}
</style>
<g>
	<path class="st0" d="M0,0h288v208H0V0z"/>
	<path class="st1" d="M163.99,57.78c0.26,0,0.52,0.11,0.7,0.29l16.5,16.69c0.18,0.19,0.29,0.44,0.29,0.71v66.75
		c0,0.55-0.44,1-0.99,1c0,0,0,0,0,0h-66c-0.55,0-0.99-0.45-0.99-1c0,0,0,0,0,0l0-21.25l-15.51,0c-0.55,0-0.99-0.45-0.99-1
		c0,0,0,0,0,0V78.25c0-0.55,0.44-1,0.99-1c0,0,0,0,0,0h15.51V58.78c0-0.55,0.44-1,0.99-1c0,0,0,0,0,0L163.99,57.78L163.99,57.78z
		 M115.48,120.97v20.25h64.02V76.47l-15.51,0c-0.55,0-0.99-0.45-0.99-1c0,0,0,0,0,0V59.78h-47.52v17.46l23.76,0
		c0.55,0,0.99,0.45,0.99,1l0,7.35h29.26c0.55,0,0.99,0.45,0.99,1c0,0.55-0.44,1-0.99,1c0,0,0,0,0,0h-29.26v9.12h29.26
		c0.55,0,0.99,0.45,0.99,1c0,0.55-0.44,1-0.99,1c0,0,0,0,0,0h-29.26v9.11h29.26c0.55,0,0.99,0.45,0.99,1c0,0.55-0.44,1-0.99,1
		c0,0,0,0,0,0h-29.26v9.12h29.26c0.55,0,0.99,0.45,0.99,1c0,0.55-0.44,1-0.99,1c0,0,0,0,0,0L115.48,120.97L115.48,120.97z
		 M158.49,130.09c0.55,0,0.99,0.45,0.99,1.01c0,0.55-0.44,1-0.99,1c0,0,0,0,0,0h-33c-0.55,0-0.99-0.45-0.99-1c0,0,0,0,0,0
		c0-0.55,0.44-1,0.99-1c0,0,0,0,0,0L158.49,130.09L158.49,130.09z M108.98,93.58l-10,10.12v15.27h39.27v-6.76l-9.99-10.25
		l-4.68,4.95c-0.18,0.2-0.43,0.31-0.7,0.31c-0.19,0.09-0.52-0.1-0.71-0.29C122.17,106.92,108.98,93.58,108.98,93.58z M138.25,79.25
		H98.98l0,21.61l9.3-9.41c0.39-0.38,1.01-0.38,1.4,0l13.17,13.32l4.68-4.96c0.18-0.2,0.54-0.28,0.71-0.31c0.26,0,0.52,0.11,0.71,0.3
		l9.29,9.54V79.25z M124.1,82.82c2.82,0,5.12,2.32,5.12,5.18c0,2.85-2.3,5.17-5.11,5.17s-5.11-2.32-5.11-5.17
		C118.98,85.15,121.28,82.82,124.1,82.82z M124.1,84.83c-1.73,0-3.14,1.42-3.14,3.17c0,1.75,1.4,3.17,3.14,3.17s3.14-1.42,3.14-3.17
		C127.23,86.25,125.83,84.83,124.1,84.83z M164.98,61.2v13.27h13.12L164.98,61.2z"/>
</g>
</svg>
