<?xml version="1.0" encoding="utf-8"?>
<!-- Generator: Adobe Illustrator 23.1.1, SVG Export Plug-In . SVG Version: 6.00 Build 0)  -->
<svg version="1.1" id="Layer_1" xmlns="http://www.w3.org/2000/svg" xmlns:xlink="http://www.w3.org/1999/xlink" x="0px" y="0px"
	 viewBox="0 0 288 208" style="enable-background:new 0 0 288 208;" xml:space="preserve">
<style type="text/css">
	.st0{fill-rule:evenodd;clip-rule:evenodd;fill:#171717;}
	.st1{fill-rule:evenodd;clip-rule:evenodd;fill:#20D5D2;}
</style>
<g>
	<path class="st0" d="M0,0h288v208H0V0z"/>
	<path class="st1" d="M153.68,142.8c4.85-3.25,8.94-8.63,11.8-15.36l9.74,0C170.09,134.79,162.52,140.29,153.68,142.8z
		 M110.71,127.44l9.74,0c2.86,6.74,6.96,12.12,11.8,15.37C123.42,140.29,115.84,134.79,110.71,127.44z M132.23,67.15
		c-4.84,3.25-8.93,8.62-11.78,15.35l-9.74,0C115.9,75.06,123.5,69.64,132.23,67.15z M175.22,82.5l-9.73,0
		c-2.85-6.73-6.95-12.1-11.78-15.35C162.53,69.66,170.09,75.16,175.22,82.5z M169.84,105.13v0.81l12.42,0
		c-0.16,6.92-2.16,13.67-5.79,19.57l-10.22,0C168.51,119.49,169.82,112.55,169.84,105.13z M182.26,104l-12.42,0v0.8
		c-0.02-7.42-1.33-14.36-3.59-20.37l10.21,0C180.1,90.33,182.1,97.08,182.26,104z M143.93,125.5V84.44l20.27,0
		c2.33,5.99,3.7,13,3.7,20.53c0,7.53-1.37,14.55-3.71,20.54C164.21,125.5,143.93,125.51,143.93,125.5z M143.93,127.44l19.48,0
		c-4.34,9.79-11.43,16.31-19.48,16.8C143.93,144.24,143.93,127.44,143.93,127.44z M118.05,105.94l23.94,0v38.3
		C128.9,143.44,118.38,126.67,118.05,105.94z M116.12,104l-12.45,0c0.16-6.92,2.17-13.67,5.8-19.57l10.21,0
		C117.51,90.23,116.23,96.89,116.12,104z M142,104l-23.94,0C118.37,83.27,128.9,66.5,142,65.7V104z M143.93,65.7
		c8.06,0.49,15.15,7.01,19.49,16.8l-19.49,0V65.7z M103.67,105.94l12.45,0c0.11,7.11,1.39,13.77,3.56,19.57l-10.21,0
		C105.83,119.61,103.83,112.86,103.67,105.94z M184.25,104.97c0-22.77-18.52-41.29-41.28-41.29s-41.28,18.52-41.28,41.29
		s18.52,41.28,41.28,41.28S184.25,127.74,184.25,104.97z M157.37,105.85l4.74-5.64l-1.48-1.24l-4.28,5.1l-4.14-5.09l-1.5,1.22
		l4.74,5.83v1.65h-3.99v1.93h3.99v3.42h1.93v-3.42h3.99v-1.93h-3.99C157.37,107.68,157.37,105.85,157.37,105.85z M137.82,125.37
		h-8.06c1-0.91,1.67-2.01,1.67-3.51c0-0.52-0.1-0.93-0.24-1.3h5.51v-1.93h-6.88c-0.23-0.29-0.36-0.58-0.36-1.09
		c0-2.71,2.1-3.67,3.89-3.67c1.37,0,2.9,1.04,3.8,1.94l1.37-1.37c-0.59-0.59-2.7-2.51-5.16-2.51c-3.43,0-5.82,2.3-5.82,5.6
		c0,0.42,0.06,0.78,0.16,1.09h-2.17v1.93h3.45c0.34,0.37,0.55,0.67,0.55,1.3c0,1.46-1.13,2.37-3.35,3.64
		c-0.46,0.27-0.62,0.86-0.36,1.32c0.17,0.3,0.49,0.48,0.83,0.49h11.2C137.82,127.3,137.82,125.37,137.82,125.37z M125.88,86.15
		c0,2.02,1.64,3.65,3.65,3.65h5.38c0.95,0,1.72,0.77,1.72,1.72c0,0.95-0.77,1.72-1.72,1.72h-8.06v1.93h4.41v3.06h1.93v-3.06h1.72
		c2.02,0,3.65-1.64,3.65-3.65c0-2.02-1.64-3.65-3.65-3.65h-5.38c-0.95-0.03-1.69-0.83-1.66-1.78c0.03-0.9,0.76-1.63,1.66-1.66h8.07
		V82.5h-4.41v-3.06h-1.93v3.06h-1.72C127.51,82.5,125.88,84.14,125.88,86.15"/>
</g>
</svg>
