<?xml version="1.0" encoding="utf-8"?>
<!-- Generator: Adobe Illustrator 23.1.1, SVG Export Plug-In . SVG Version: 6.00 Build 0)  -->
<svg version="1.1" id="Layer_1" xmlns="http://www.w3.org/2000/svg" xmlns:xlink="http://www.w3.org/1999/xlink" x="0px" y="0px"
	 viewBox="0 0 85.44 84.48" style="enable-background:new 0 0 85.44 84.48;" xml:space="preserve">
<style type="text/css">
	.st0{fill-rule:evenodd;clip-rule:evenodd;fill:#EDF4FF;}
</style>
<path class="st0" d="M13.07,82.5h64.15c3.43,0,6.22-2.75,6.22-6.14V62.48H15.91v13.66C15.91,78.57,14.88,80.88,13.07,82.5
	L13.07,82.5z M2,1.98v74.38c0,1.77,0.67,3.39,1.9,4.55c1.08,1.03,2.52,1.59,4.06,1.59h0.06c0.06,0,0.13,0,0.19,0
	c3.14-0.12,5.7-2.97,5.7-6.35V61.49c0-0.55,0.45-0.99,1-0.99h54.62V1.98H2z M7.95,84.48c-2.06,0-3.98-0.76-5.44-2.15
	C0.91,80.82,0,78.64,0,76.36V0.99C0,0.44,0.45,0,1,0h69.53c0.55,0,1,0.44,1,0.99V60.5h12.9c0.55,0,1,0.44,1,0.99v14.87
	c0,4.48-3.69,8.12-8.22,8.12H7.95z M56.63,48.73h5.56v-1.98h-5.56L56.63,48.73L56.63,48.73z M9.26,15.73H45.5v-1.98H9.26L9.26,15.73
	L9.26,15.73z M56.62,15.73h5.56v-1.98h-5.56V15.73z M9.26,26.73H45.5v-1.98H9.26L9.26,26.73L9.26,26.73z M56.62,26.73h5.56v-1.98
	h-5.56V26.73z M9.26,37.78H45.5v-1.98H9.26V37.78z M56.63,37.78h5.56v-1.98h-5.56V37.78z M9.26,48.73H45.5v-1.98H9.26V48.73z"/>
</svg>
