<?xml version="1.0" encoding="utf-8"?>
<!-- Generator: Adobe Illustrator 23.1.1, SVG Export Plug-In . SVG Version: 6.00 Build 0)  -->
<svg version="1.1" id="Layer_1" xmlns="http://www.w3.org/2000/svg" xmlns:xlink="http://www.w3.org/1999/xlink" x="0px" y="0px"
	 viewBox="0 0 79.66 78.7" style="enable-background:new 0 0 79.66 78.7;" xml:space="preserve">
<style type="text/css">
	.st0{fill-rule:evenodd;clip-rule:evenodd;}
</style>
<path class="st0" d="M45.13,0.27L61.6,16.54l8.68-8.57c0.37-0.36,0.95-0.36,1.32,0c0.36,0.36,0.36,0.94,0.01,1.3c0,0,0,0-0.01,0.01
	l-8.68,8.57l16.46,16.26c0.36,0.35,0.37,0.93,0.01,1.29c0,0-0.01,0.01-0.01,0.01L35.84,78.43c-0.37,0.36-0.95,0.36-1.32,0
	L0.27,44.59c-0.36-0.36-0.36-0.94,0-1.3c0,0,0,0,0,0L43.81,0.27C44.18-0.09,44.77-0.09,45.13,0.27L45.13,0.27z M44.47,2.23
	L2.25,43.94l32.93,32.53L77.4,34.76l-15.8-15.61l-2.56,2.53c1.74,2.37,1.48,5.65-0.62,7.71c-1.13,1.12-2.67,1.75-4.26,1.75
	c-1.61,0-3.12-0.62-4.26-1.75c-1.13-1.11-1.77-2.63-1.77-4.21c0-1.59,0.63-3.09,1.77-4.21c2.13-2.1,5.46-2.3,7.82-0.6l2.56-2.53
	L44.47,2.23L44.47,2.23z M44.34,33.6l1.32,1.3l-2.39,2.36c0.9,1.13,1.42,2.51,1.49,3.95c0.08,1.76-0.54,3.38-1.76,4.58l-1.32-1.31
	c0.83-0.82,1.27-1.96,1.21-3.19c-0.05-0.98-0.38-1.92-0.96-2.71l-6.33,6.25c2.06,2.63,2,6.28-0.27,8.52
	c-1.14,1.13-2.67,1.74-4.34,1.74c-0.1,0-0.2,0-0.3-0.01c-1.45-0.07-2.85-0.58-4-1.47l-2.49,2.46l-1.32-1.31l2.49-2.46
	c-0.9-1.13-1.42-2.51-1.49-3.95c-0.08-1.76,0.55-3.38,1.76-4.58l1.32,1.31c-1.55,1.53-1.6,4.02-0.25,5.9l6.32-6.25
	c-2.06-2.63-2-6.29,0.27-8.53c2.26-2.24,5.97-2.29,8.63-0.26C41.95,35.96,44.34,33.6,44.34,33.6z M34.28,46.15l-6.23,6.15
	c0.81,0.57,1.76,0.9,2.74,0.94c1.2,0.09,2.38-0.34,3.23-1.19C35.57,50.53,35.63,48.03,34.28,46.15L34.28,46.15z M34.64,37.53
	c-1.54,1.52-1.6,4.02-0.25,5.9l6.23-6.15c-0.81-0.57-1.76-0.9-2.74-0.95C36.61,36.3,35.48,36.7,34.64,37.53z M54.17,21.08
	c-1.07,0-2.13,0.4-2.94,1.2c-0.78,0.76-1.22,1.81-1.22,2.9c0,1.09,0.44,2.14,1.22,2.9c1.52,1.51,4.13,1.56,5.72,0.15l0.16-0.15
	c1.36-1.34,1.61-3.45,0.59-5.07l-2.87,2.83c-0.18,0.17-0.41,0.27-0.66,0.27c-0.25,0-0.48-0.1-0.66-0.27
	c-0.36-0.35-0.37-0.93-0.01-1.29c0,0,0.01-0.01,0.01-0.01l2.87-2.83C55.72,21.29,54.95,21.08,54.17,21.08z"/>
</svg>
