<?xml version="1.0" encoding="utf-8"?>
<!-- Generator: Adobe Illustrator 23.1.1, SVG Export Plug-In . SVG Version: 6.00 Build 0)  -->
<svg version="1.1" id="Layer_1" xmlns="http://www.w3.org/2000/svg" xmlns:xlink="http://www.w3.org/1999/xlink" x="0px" y="0px"
	 viewBox="0 0 82.56 82.56" style="enable-background:new 0 0 82.56 82.56;" xml:space="preserve">
<style type="text/css">
	.st0{fill-rule:evenodd;clip-rule:evenodd;}
</style>
<path class="st0" d="M81.59,80.62c0.54,0,0.97,0.43,0.97,0.97c0,0.53-0.43,0.97-0.97,0.97c0,0,0,0,0,0H0.97
	C0.43,82.56,0,82.13,0,81.6l0,0c0-0.54,0.43-0.97,0.97-0.97H81.59z M81.59,72.56c0.54,0,0.97,0.43,0.97,0.97
	c0,0.53-0.43,0.97-0.97,0.97c0,0,0,0,0,0H0.97C0.43,74.5,0,74.07,0,73.53c0,0,0,0,0,0c0-0.54,0.43-0.97,0.97-0.97H81.59z
	 M81.59,64.5c0.54,0,0.97,0.43,0.97,0.97c0,0.53-0.43,0.97-0.97,0.97c0,0,0,0,0,0H0.97C0.43,66.44,0,66,0,65.47l0,0
	c0-0.54,0.43-0.97,0.97-0.97H81.59z M81.59,0c0.54,0,0.97,0.43,0.97,0.97v56.44c0,0.53-0.43,0.97-0.97,0.97c0,0,0,0,0,0H0.97
	C0.43,58.38,0,57.94,0,57.41c0,0,0,0,0,0V0.97C0,0.43,0.43,0,0.97,0C0.97,0,81.59,0,81.59,0z M80.62,10H1.94l0,46.44h78.69L80.62,10
	L80.62,10z M62.78,16.17c4.28,0,8.04,2.31,10.08,5.75c0.02,0.03,0.04,0.05,0.05,0.08l0.03,0.07c1.02,1.77,1.55,3.78,1.55,5.82
	c0,6.46-5.26,11.72-11.72,11.72c-2.07,0-4.09-0.54-5.88-1.58l-0.02-0.01c-3.48-2.03-5.82-5.81-5.82-10.12
	c0-2.13,0.57-4.13,1.57-5.85c0.01-0.01,0.01-0.03,0.02-0.04l0.03-0.05C54.73,18.49,58.49,16.17,62.78,16.17L62.78,16.17z
	 M71.68,23.82l-8.19,4.73l-4.76,8.24c1.27,0.58,2.65,0.88,4.05,0.88c5.39,0,9.78-4.39,9.78-9.78
	C72.56,26.44,72.25,25.06,71.68,23.82z M25.16,34.94c0.53,0,0.97,0.43,0.97,0.97c0,0.53-0.43,0.97-0.97,0.97c0,0,0,0,0,0H9.03
	c-0.53,0-0.97-0.43-0.97-0.97c0,0,0,0,0,0c0-0.54,0.43-0.97,0.97-0.97H25.16z M53,27.89c0,3.14,1.51,6.09,4.06,7.93l4.4-7.62
	l-7.58-4.38C53.3,25.1,53,26.49,53,27.89z M35.91,26.88c0.53,0,0.97,0.43,0.97,0.97c0,0.53-0.43,0.97-0.97,0.97l0,0H9.03
	c-0.53,0-0.97-0.43-0.97-0.97c0,0,0,0,0,0c0-0.54,0.43-0.97,0.97-0.97C9.03,26.88,35.91,26.88,35.91,26.88z M62.78,18.11
	c-3.14,0-6.08,1.51-7.92,4.05l7.92,4.57l7.92-4.57C68.86,19.61,65.92,18.11,62.78,18.11z M35.91,18.81c0.53,0,0.97,0.43,0.97,0.97
	c0,0.53-0.43,0.97-0.97,0.97c0,0,0,0,0,0H9.03c-0.53,0-0.97-0.43-0.97-0.97c0,0,0,0,0,0c0-0.54,0.43-0.97,0.97-0.97
	C9.03,18.81,35.91,18.81,35.91,18.81z M80.62,1.94H1.94v6.13h78.69L80.62,1.94L80.62,1.94z M74.87,3.66c0.74,0,1.34,0.6,1.34,1.34
	c0,0.74-0.6,1.34-1.34,1.34c0,0,0,0,0,0c-0.74,0-1.34-0.6-1.34-1.34S74.13,3.66,74.87,3.66L74.87,3.66z M69.5,3.66
	c0.74,0,1.34,0.6,1.34,1.34c0,0.74-0.6,1.34-1.34,1.34c0,0,0,0,0,0c-0.74,0-1.34-0.6-1.34-1.34S68.76,3.66,69.5,3.66L69.5,3.66z
	 M64.12,3.66c0.74,0,1.34,0.6,1.34,1.34c0,0.74-0.6,1.34-1.34,1.34c0,0,0,0,0,0c-0.74,0-1.34-0.6-1.34-1.34S63.38,3.66,64.12,3.66
	L64.12,3.66L64.12,3.66z"/>
</svg>
