<?xml version="1.0" encoding="utf-8"?>
<!-- Generator: Adobe Illustrator 23.1.1, SVG Export Plug-In . SVG Version: 6.00 Build 0)  -->
<svg version="1.1" id="Layer_1" xmlns="http://www.w3.org/2000/svg" xmlns:xlink="http://www.w3.org/1999/xlink" x="0px" y="0px"
	 viewBox="0 0 85.44 85.44" style="enable-background:new 0 0 85.44 85.44;" xml:space="preserve">
<style type="text/css">
	.st0{fill-rule:evenodd;clip-rule:evenodd;}
</style>
<path class="st0" d="M46.06,39.44c3.95-2.65,8.59-4.07,13.35-4.06c13.25,0,24.03,10.78,24.03,24.03S72.66,83.44,59.41,83.44
	S35.38,72.66,35.38,59.41c0-1.04,0.08-2.07,0.22-3.1c0.35-2.75,1.18-5.42,2.46-7.88C39.9,44.79,42.66,41.69,46.06,39.44z M46.5,2
	h11.9V33.4c-0.74,0.03-1.47,0.13-2.21,0.22c-0.25,0.03-0.51,0.04-0.76,0.08c-1.16,0.18-2.3,0.44-3.42,0.77
	c-0.29,0.09-0.58,0.21-0.87,0.31c-0.82,0.28-1.63,0.58-2.42,0.94c-0.38,0.17-0.75,0.36-1.11,0.55c-0.37,0.19-0.76,0.35-1.12,0.56
	C46.5,36.81,46.5,2,46.5,2z M24.25,24.25h11.9v23.48c-0.42,0.83-0.79,1.69-1.13,2.56c-0.04,0.12-0.08,0.26-0.12,0.38
	c-0.29,0.8-0.54,1.61-0.74,2.43c-0.08,0.32-0.13,0.65-0.2,0.97c-0.14,0.64-0.26,1.28-0.35,1.92c-0.05,0.38-0.07,0.76-0.11,1.14
	c-0.04,0.42-0.1,0.83-0.12,1.26h-9.14C24.25,58.41,24.25,24.25,24.25,24.25z M37.16,22.25H23.25c-0.55,0-1,0.45-1,1v36.16
	c0,0.55,0.45,1,1,1h10.18c0.53,13.89,11.97,25.03,25.98,25.03c14.35,0,26.03-11.68,26.03-26.03c0-14.01-11.14-25.45-25.03-25.98V1
	c0-0.55-0.45-1-1-1c0,0,0,0,0,0H45.5c-0.55,0-1,0.45-1,1v37.11c-2.47,1.71-4.61,3.84-6.34,6.3V23.25
	C38.16,22.7,37.71,22.25,37.16,22.25C37.16,22.25,37.16,22.25,37.16,22.25L37.16,22.25z M55.23,60.41h8.35
	c1.75,0,3.17,1.42,3.17,3.17c0,1.75-1.42,3.17-3.17,3.17H51.06v2h7.34v4.56h2v-4.56h3.17c2.86,0,5.17-2.32,5.17-5.17
	c0-2.86-2.32-5.17-5.17-5.17h-8.35c-1.75,0-3.17-1.42-3.17-3.17c0-1.75,1.42-3.17,3.17-3.17h12.52v-2H60.4V45.5h-2v4.56h-3.17
	c-2.85,0-5.17,2.32-5.17,5.17C50.06,58.09,52.38,60.4,55.23,60.41 M2,58.41h11.9V40.94H2L2,58.41L2,58.41z M1,60.41h13.91
	c0.55,0,1-0.45,1-1V39.94c0-0.55-0.45-1-1-1c0,0,0,0,0,0H1c-0.55,0-1,0.45-1,1c0,0,0,0,0,0v19.47C0,59.96,0.45,60.41,1,60.41
	L1,60.41z"/>
</svg>
