<?xml version="1.0" encoding="utf-8"?>
<!-- Generator: Adobe Illustrator 23.1.1, SVG Export Plug-In . SVG Version: 6.00 Build 0)  -->
<svg version="1.1" id="Layer_1" xmlns="http://www.w3.org/2000/svg" xmlns:xlink="http://www.w3.org/1999/xlink" x="0px" y="0px"
	 viewBox="0 0 74.1 74" style="enable-background:new 0 0 74.1 74;" xml:space="preserve">
<style type="text/css">
	.st0{fill-rule:evenodd;clip-rule:evenodd;}
</style>
<path class="st0" d="M17.94,32.56c2.21,0,4,1.79,4,4c0,2.21-1.79,3.99-4,4c-2.21,0-3.99-1.79-4-4
	C13.95,34.36,15.73,32.57,17.94,32.56z M39.49,52.63c1.22,0.7,1.95,1.98,1.95,3.43c0,2.21-1.79,4-4,4c-2.21,0-3.99-1.79-4-4
	c0-2.21,1.79-4,4-4C38.18,52.06,38.88,52.26,39.49,52.63z M55.38,17.06c0-2.21,1.79-4,4-4c0.87,0,1.7,0.27,2.4,0.77
	c1.01,0.76,1.61,1.96,1.6,3.23c0,2.21-1.79,3.99-4,4c-0.55,0-1.09-0.12-1.58-0.35C56.33,20.1,55.38,18.66,55.38,17.06z M0,0v73.12
	C0,73.61,0.39,74,0.88,74H74.1v-1.75H1.76V37.44h10.52c0.43,2.76,2.79,4.88,5.66,4.88c1.31,0,2.51-0.46,3.48-1.2l11.47,11.47
	c-0.77,1-1.2,2.22-1.2,3.48c0,3.18,2.58,5.75,5.75,5.75c3.18,0,5.75-2.57,5.75-5.75c0-1.75-0.82-3.36-2.13-4.41l16.79-29.08
	c0.49,0.15,1.01,0.23,1.52,0.24c2.87,0,5.24-2.12,5.67-4.88H74v-1.75h-8.97c-0.22-1.48-0.98-2.82-2.21-3.76
	c-1-0.73-2.21-1.12-3.44-1.12c-3.18,0-5.75,2.58-5.75,5.75c0,1.98,1.04,3.73,2.64,4.76L39.56,50.76c-0.66-0.27-1.36-0.45-2.11-0.45
	c-1.23,0-2.36,0.39-3.29,1.05l-11.5-11.5c0.68-0.96,1.05-2.11,1.05-3.29c0-3.18-2.58-5.75-5.75-5.75c-2.87,0-5.24,2.12-5.66,4.88
	H1.76V0H0L0,0z"/>
</svg>
