<?xml version="1.0" encoding="utf-8"?>
<!-- Generator: Adobe Illustrator 23.1.1, SVG Export Plug-In . SVG Version: 6.00 Build 0)  -->
<svg version="1.1" id="Layer_1" xmlns="http://www.w3.org/2000/svg" xmlns:xlink="http://www.w3.org/1999/xlink" x="0px" y="0px"
	 viewBox="0 0 78.72 78.21" style="enable-background:new 0 0 78.72 78.21;" xml:space="preserve">
<style type="text/css">
	.st0{fill-rule:evenodd;clip-rule:evenodd;}
</style>
<path class="st0" d="M67.55,0c6.16,0,11.17,5.01,11.17,11.17v35.88c0,6.16-5.01,11.17-11.17,11.17H50.18l-10,19.99l-1.65-0.82
	l10.25-20.5c0.16-0.31,0.48-0.51,0.83-0.51h17.94c5.14,0,9.33-4.19,9.33-9.33V11.17c0-5.14-4.18-9.33-9.33-9.33H11.17
	c-5.14,0-9.33,4.18-9.33,9.33v35.88c0,5.14,4.18,9.33,9.33,9.33h28.19v1.85H11.17C5.01,58.22,0,53.21,0,47.05V11.17
	C0,5.01,5.01,0,11.17,0L67.55,0z M40.28,13.74v4.2h9.33v1.84H34.23c-2.32,0-4.2,1.88-4.2,4.2c0,2.32,1.88,4.2,4.2,4.2h10.25
	c3.34,0,6.04,2.71,6.05,6.05c0,3.34-2.71,6.04-6.05,6.05h-4.2v4.2h-1.84v-4.2h-9.33v-1.85h15.38c2.32,0,4.2-1.88,4.2-4.2
	c0-2.32-1.88-4.2-4.2-4.2H34.23c-3.34,0-6.04-2.71-6.04-6.05c0-3.34,2.71-6.04,6.04-6.05h4.21v-4.2H40.28L40.28,13.74z"/>
</svg>
