<?xml version="1.0" encoding="utf-8"?>
<!-- Generator: Adobe Illustrator 23.1.1, SVG Export Plug-In . SVG Version: 6.00 Build 0)  -->
<svg version="1.1" id="Layer_1" xmlns="http://www.w3.org/2000/svg" xmlns:xlink="http://www.w3.org/1999/xlink" x="0px" y="0px"
	 viewBox="0 0 79.68 78.72" style="enable-background:new 0 0 79.68 78.72;" xml:space="preserve">
<style type="text/css">
	.st0{fill-rule:evenodd;clip-rule:evenodd;}
</style>
<path class="st0" d="M39.84,0c21.97,0,39.84,17.66,39.84,39.36c0,21.7-17.87,39.36-39.84,39.36C17.87,78.72,0,61.06,0,39.36
	C0,17.66,17.87,0,39.84,0z M40.78,1.86v6.75H38.9V1.86C18.71,2.34,2.37,18.48,1.88,38.44h6.84v1.85H1.88
	c0.49,19.95,16.83,36.1,37.03,36.58v-6.75h1.87v6.75c20.2-0.49,36.54-16.63,37.03-36.58l-6.84,0v-1.85h6.84
	C77.31,18.48,60.97,2.34,40.78,1.86L40.78,1.86z M40.77,13.74v25.09l17.5,9.99l-0.93,1.6L38.91,39.89V13.74H40.77z"/>
</svg>
