<?xml version="1.0" encoding="utf-8"?>
<!-- Generator: Adobe Illustrator 23.1.1, SVG Export Plug-In . SVG Version: 6.00 Build 0)  -->
<svg version="1.1" id="Layer_1" xmlns="http://www.w3.org/2000/svg" xmlns:xlink="http://www.w3.org/1999/xlink" x="0px" y="0px"
	 viewBox="0 0 82.56 84.28" style="enable-background:new 0 0 82.56 84.28;" xml:space="preserve">
<style type="text/css">
	.st0{fill-rule:evenodd;clip-rule:evenodd;}
</style>
<path class="st0" d="M62.78,44.93c9.84,0,17.85,8.01,17.85,17.85s-8.01,17.85-17.85,17.85s-17.85-8.01-17.85-17.85
	c0-2.84,0.69-5.65,1.99-8.15c1.37-2.7,3.42-5.01,5.95-6.68C55.8,45.98,59.25,44.93,62.78,44.93z M1.94,68.29
	c0-11.98,7.7-22.74,19.16-26.77c0.47,0.24,1.06,0.06,1.3-0.42c0.24-0.47,0.06-1.06-0.42-1.3c-0.24-0.12-0.51-0.14-0.76-0.05
	c-6.71-3.5-10.87-10.3-10.87-17.74c0-11.07,9.01-20.08,20.08-20.08S50.5,10.94,50.5,22.01c0,7.45-4.17,14.24-10.87,17.71
	c-0.47,0.25-0.66,0.83-0.41,1.3c0.11,0.22,0.31,0.39,0.54,0.47c3.78,1.33,7.27,3.49,10.2,6.24c-1.96,1.67-3.58,3.71-4.75,6
	c-1.45,2.79-2.2,5.89-2.2,9.04c0,10.91,8.87,19.78,19.78,19.78s19.78-8.87,19.78-19.78S73.69,43,62.78,43
	c-3.91-0.01-7.74,1.16-10.99,3.34c-0.1,0.06-0.18,0.14-0.27,0.21c-2.68-2.57-5.81-4.68-9.22-6.13c6.3-4.03,10.13-10.91,10.13-18.4
	C52.43,9.87,42.56,0,30.42,0C18.29,0,8.41,9.87,8.41,22.01c0,7.48,3.84,14.37,10.14,18.43C7.38,45.21,0,56.16,0,68.29v15.99h1.93
	L1.94,68.29L1.94,68.29z M60.09,63.75h5.38c0.95,0,1.72,0.77,1.72,1.72c0,0.95-0.77,1.72-1.72,1.72H57.4v1.93h4.41v3.06h1.93v-3.06
	h1.72c2.02,0,3.65-1.64,3.65-3.65c0-2.02-1.64-3.65-3.65-3.65h-5.38c-0.95,0-1.72-0.77-1.72-1.72c0-0.95,0.77-1.72,1.72-1.72h8.06
	v-1.94h-4.41v-3.06h-1.93v3.06h-1.72c-2.02,0-3.65,1.64-3.65,3.65C56.44,62.11,58.07,63.75,60.09,63.75"/>
</svg>
