<?xml version="1.0" encoding="utf-8"?>
<!-- Generator: Adobe Illustrator 23.1.1, SVG Export Plug-In . SVG Version: 6.00 Build 0)  -->
<svg version="1.1" id="Layer_1" xmlns="http://www.w3.org/2000/svg" xmlns:xlink="http://www.w3.org/1999/xlink" x="0px" y="0px"
	 viewBox="0 0 78.08 85.26" style="enable-background:new 0 0 78.08 85.26;" xml:space="preserve">
<style type="text/css">
	.st0{fill-rule:evenodd;clip-rule:evenodd;}
</style>
<path class="st0" d="M55.35,0c7.38,0,13.38,6,13.38,13.38c0,4.46-2.23,8.57-5.84,11.04c9.05,3.16,15.18,11.67,15.18,21.44v23.08
	h-1.96V45.86c0-9.67-6.56-17.98-15.97-20.2c-0.53-0.13-0.85-0.66-0.72-1.18c0.07-0.3,0.28-0.54,0.55-0.67
	c4.12-1.83,6.78-5.92,6.79-10.43c0-6.3-5.12-11.42-11.42-11.42c-6.3,0-11.42,5.12-11.42,11.42c0,1.46,0.27,2.87,0.8,4.21
	c4.54,2.14,7.68,6.76,7.68,12.1c0,4.46-2.23,8.57-5.83,11.04c9.05,3.16,15.18,11.67,15.18,21.45v23.09h-1.96V62.18
	c0-9.67-6.56-17.98-15.96-20.21c-0.53-0.13-0.85-0.66-0.72-1.18c0.07-0.3,0.28-0.54,0.55-0.67c4.12-1.83,6.78-5.92,6.78-10.43
	c0-6.3-5.12-11.42-11.42-11.42c-6.3,0-11.42,5.12-11.42,11.42c0,4.5,2.67,8.59,6.79,10.43c0.38,0.17,0.61,0.57,0.57,0.99
	c-0.04,0.42-0.34,0.77-0.75,0.86c-9.4,2.23-15.96,10.53-15.96,20.21v23.09h-1.95V62.18c0-9.78,6.13-18.29,15.18-21.45
	c-3.65-2.49-5.83-6.62-5.83-11.04c0-5.34,3.14-9.96,7.68-12.1l-0.14,0.33c0.63-1.43,0.94-2.96,0.94-4.54
	c0-6.3-5.12-11.42-11.42-11.42c-6.3,0-11.42,5.12-11.42,11.42c0,4.5,2.66,8.59,6.79,10.43c0.38,0.17,0.61,0.57,0.57,0.99
	c-0.04,0.42-0.34,0.76-0.75,0.86C8.52,27.88,1.96,36.19,1.96,45.86v23.08H0V45.86c0-9.78,6.14-18.29,15.19-21.44
	c-3.65-2.49-5.83-6.62-5.83-11.04C9.35,6,15.35,0,22.73,0S36.1,6,36.1,13.38c0,1.13-0.14,2.26-0.43,3.36
	c1.08-0.28,2.2-0.43,3.36-0.43c1.16,0,2.29,0.15,3.36,0.43c-0.28-1.1-0.43-2.23-0.43-3.36C41.98,6,47.98,0,55.35,0L55.35,0z"/>
</svg>
