<?xml version="1.0" encoding="utf-8"?>
<!-- Generator: Adobe Illustrator 23.1.1, SVG Export Plug-In . SVG Version: 6.00 Build 0)  -->
<svg version="1.1" id="Layer_1" xmlns="http://www.w3.org/2000/svg" xmlns:xlink="http://www.w3.org/1999/xlink" x="0px" y="0px"
	 viewBox="0 0 82.56 82.57" style="enable-background:new 0 0 82.56 82.57;" xml:space="preserve">
<style type="text/css">
	.st0{fill-rule:evenodd;clip-rule:evenodd;}
</style>
<path class="st0" d="M52,79.11c4.85-3.25,8.94-8.63,11.8-15.36l9.74,0C68.41,71.1,60.83,76.61,52,79.11z M9.02,63.75l9.74,0
	c2.86,6.74,6.96,12.12,11.8,15.37C21.73,76.61,14.16,71.1,9.02,63.75z M30.54,3.46c-4.84,3.25-8.93,8.62-11.78,15.35l-9.74,0
	C14.22,11.38,21.82,5.95,30.54,3.46z M73.53,18.81l-9.73,0c-2.85-6.73-6.95-12.1-11.78-15.35C60.84,5.97,68.4,11.47,73.53,18.81z
	 M68.16,41.44v0.81l12.42-0.01c-0.16,6.92-2.16,13.67-5.79,19.57l-10.22,0C66.82,55.8,68.13,48.86,68.16,41.44L68.16,41.44z
	 M80.58,40.31l-12.42,0.01v0.8c-0.02-7.42-1.33-14.36-3.59-20.37l10.21,0C78.41,26.64,80.41,33.39,80.58,40.31z M42.25,61.82V20.75
	l20.28,0c2.33,5.99,3.7,13,3.7,20.53c0,7.53-1.37,14.55-3.71,20.54C62.52,61.82,42.25,61.82,42.25,61.82z M42.25,63.75l19.48,0
	c-4.34,9.79-11.43,16.31-19.48,16.8C42.25,80.55,42.25,63.75,42.25,63.75z M16.37,42.25l23.95,0v38.3
	C27.21,79.75,16.69,62.98,16.37,42.25z M14.43,40.31l-12.45,0c0.16-6.92,2.17-13.67,5.8-19.57l10.22,0
	C15.82,26.54,14.54,33.2,14.43,40.31z M40.31,40.31l-23.94,0c0.32-20.73,10.84-37.51,23.94-38.3V40.31z M42.25,2.01
	c8.06,0.49,15.15,7.01,19.49,16.8l-19.49,0C42.25,18.82,42.25,2.01,42.25,2.01z M1.98,42.25l12.45,0
	c0.11,7.11,1.39,13.77,3.56,19.56l-10.22,0C4.15,55.92,2.15,49.17,1.98,42.25z M82.56,41.28C82.56,18.52,64.04,0,41.28,0
	S0,18.52,0,41.28c0,22.77,18.52,41.28,41.28,41.28S82.56,64.05,82.56,41.28z M55.68,42.17l4.74-5.64l-1.48-1.24l-4.28,5.1
	l-4.14-5.09l-1.5,1.22l4.74,5.83v1.65h-3.99v1.94h3.99v3.42h1.94v-3.42h3.99v-1.94h-3.99V42.17L55.68,42.17z M36.13,61.68h-8.06
	c1-0.91,1.67-2.01,1.67-3.51c0-0.52-0.1-0.93-0.24-1.3h5.51v-1.94h-6.89c-0.23-0.29-0.36-0.58-0.36-1.09c0-2.71,2.1-3.67,3.89-3.67
	c1.37,0,2.9,1.04,3.8,1.94l1.37-1.37c-0.59-0.59-2.7-2.51-5.16-2.51c-3.43,0-5.82,2.3-5.82,5.6c0,0.42,0.06,0.78,0.16,1.09h-2.17
	v1.94h3.44c0.34,0.37,0.55,0.67,0.55,1.3c0,1.46-1.13,2.37-3.35,3.64c-0.46,0.27-0.62,0.86-0.36,1.32c0.17,0.3,0.49,0.48,0.83,0.49
	h11.2C36.13,63.61,36.13,61.68,36.13,61.68z M24.19,22.47c0,2.02,1.64,3.65,3.65,3.66h5.38c0.95,0,1.72,0.77,1.72,1.72
	c0,0.95-0.77,1.72-1.72,1.72h-8.06v1.94h4.41v3.06h1.94V31.5h1.72c2.02,0,3.65-1.64,3.65-3.66c0-2.02-1.64-3.65-3.65-3.66h-5.38
	c-0.95-0.03-1.69-0.83-1.66-1.78c0.03-0.9,0.76-1.63,1.66-1.66h8.07v-1.93H31.5v-3.06h-1.94v3.06h-1.72
	C25.82,18.82,24.19,20.45,24.19,22.47"/>
</svg>
