<?xml version="1.0" encoding="utf-8"?>
<!-- Generator: Adobe Illustrator 23.1.1, SVG Export Plug-In . SVG Version: 6.00 Build 0)  -->
<svg version="1.1" id="Layer_1" xmlns="http://www.w3.org/2000/svg" xmlns:xlink="http://www.w3.org/1999/xlink" x="0px" y="0px"
	 viewBox="0 0 88.32 85.39" style="enable-background:new 0 0 88.32 85.39;" xml:space="preserve">
<style type="text/css">
	.st0{fill-rule:evenodd;clip-rule:evenodd;fill:#FFFFFF;}
</style>
<path class="st0" d="M44.16,76.95c2.38,0,4.31,1.89,4.31,4.22c0,2.33-1.93,4.22-4.31,4.22c-2.38,0-4.31-1.89-4.31-4.22
	C39.85,78.84,41.78,76.95,44.16,76.95z M44.16,0c24.35,0,44.16,19.38,44.16,43.2c0,15.39-8.47,29.74-22.11,37.44
	c-0.49,0.28-1.12,0.12-1.42-0.37c-0.28-0.48-0.12-1.09,0.36-1.37c0.01,0,0.01-0.01,0.02-0.01c13-7.34,21.08-21.01,21.08-35.69
	c0-22.7-18.88-41.17-42.09-41.17S2.07,20.49,2.07,43.2c0,14.67,8.07,28.34,21.08,35.69c0.48,0.27,0.66,0.88,0.39,1.36
	c0,0.01-0.01,0.02-0.01,0.02c-0.19,0.33-0.54,0.51-0.9,0.51c-0.17,0-0.35-0.04-0.52-0.14C8.47,72.94,0,58.59,0,43.2
	C0,19.38,19.81,0,44.16,0z M44.19,14.07c11.73,0,20.24,7.6,20.24,18.08c0,9.72-4.97,13.34-9.77,16.84c-4.87,3.55-9.48,6.9-9.48,16.7
	c0,0.56-0.46,1.01-1.03,1.01c-0.56,0.01-1.03-0.45-1.03-1.01c0,0,0,0,0,0c0-10.81,5.24-14.63,10.31-18.32
	c4.6-3.35,8.94-6.51,8.94-15.22c0-9.3-7.64-16.06-18.17-16.06c-10.02,0-18.17,8.01-18.17,17.86c0,0.56-0.46,1.01-1.03,1.01
	c-0.57,0-1.03-0.45-1.03-1.01C23.95,22.99,33.03,14.07,44.19,14.07z"/>
</svg>
