<?xml version="1.0" encoding="utf-8"?>
<!-- Generator: Adobe Illustrator 23.1.1, SVG Export Plug-In . SVG Version: 6.00 Build 0)  -->
<svg version="1.1" id="Layer_1" xmlns="http://www.w3.org/2000/svg" xmlns:xlink="http://www.w3.org/1999/xlink" x="0px" y="0px"
	 viewBox="0 0 89.28 89.28" style="enable-background:new 0 0 89.28 89.28;" xml:space="preserve">
<style type="text/css">
	.st0{fill-rule:evenodd;clip-rule:evenodd;fill:#FFFFFF;}
</style>
<path class="st0" d="M36.97,87.19h15.34V36.97H36.97V87.19z M53.36,34.88c0.58,0,1.05,0.47,1.05,1.05v52.31
	c0,0.58-0.47,1.05-1.05,1.05H35.92c-0.58,0-1.05-0.47-1.05-1.05V35.92c0-0.58,0.47-1.05,1.05-1.05H53.36z M88.23,0
	c0.58,0,1.05,0.47,1.05,1.05v87.19c0,0.58-0.47,1.05-1.05,1.05H70.8c-0.58,0-1.05-0.47-1.05-1.05V1.05C69.75,0.47,70.22,0,70.8,0
	L88.23,0z M18.48,69.75c0.58,0,1.05,0.47,1.05,1.05v17.44c0,0.58-0.47,1.05-1.05,1.05H1.05C0.47,89.28,0,88.81,0,88.23V70.8
	c0-0.58,0.47-1.05,1.05-1.05L18.48,69.75z M87.19,2.09H71.85v85.1h15.34V2.09z M17.44,71.84H2.1v15.35h15.34
	C17.44,87.19,17.44,71.84,17.44,71.84z"/>
</svg>
